<svg xmlns="http://www.w3.org/2000/svg" width="294" height="78"><path d="M107.7 32.464h-5.934V21.959c0-5.29.038-6.651.265-11.64l-.227-.037c-1.058 5.063-1.398 6.386-2.796 11.677l-2.721 10.505h-6.424l-2.759-10.505c-1.36-5.329-1.7-6.614-2.758-11.677l-.227.038c.227 5.025.264 6.5.264 11.639v10.505H78.45V3.102h9.108L90.77 14.93c1.209 4.61 1.398 5.441 2.305 9.485h.189c.869-4.044 1.058-4.913 2.305-9.485l3.174-11.828h8.956v29.362zM133.358 32.464h-6.046v-2.23c0-1.02.075-1.549.302-2.758l-.189-.076c-2.116 4.384-3.892 5.782-7.406 5.782-2.608 0-4.989-1.285-6.047-3.288-1.058-2.078-1.209-3.212-1.209-9.485V8.354h6.349v11.904c0 3.741.037 4.232.415 5.29.416 1.248 1.7 2.079 3.25 2.079 1.776 0 3.137-.945 3.741-2.645.454-1.398.53-2.079.53-5.63V8.353h6.31v24.11zM152.82 16.139c-1.89-2.003-3.78-2.91-6.085-2.91-2.267 0-3.627.945-3.627 2.57 0 1.285.869 1.965 3.287 2.38 5.102.908 7.218 2.986 7.218 6.992 0 4.799-3.363 8.049-8.351 8.049-2.872 0-4.988-.68-7.18-2.419v-5.593c2.078 2.154 3.968 3.061 6.424 3.061 2.23 0 3.59-.944 3.59-2.532 0-1.209-.794-2.078-2.305-2.38l-2.608-.605c-3.968-.831-5.895-3.174-5.895-7.066 0-4.913 3.363-8.05 8.654-8.05 2.645 0 4.686.718 6.84 2.419v6.084zM164.837 4.084c0 1.7-1.248 2.494-3.78 2.494-2.645 0-3.93-.793-3.93-2.38 0-1.739 1.399-2.683 3.893-2.683 2.494 0 3.817.869 3.817 2.57zm-6.991 28.38V8.354c1.209.303 1.965.378 2.985.378 1.02 0 1.927-.113 3.325-.378v24.11h-6.31zM169.598 1.893h6.31v11.676c0 2.948 0 3.553-.15 6.236l.15.037c1.323-2.305 1.739-2.91 3.288-5.29l4.12-6.198h7.897l-9.182 11.98 9.598 12.13h-8.276l-4.119-6.122c-1.7-2.456-2.003-2.947-3.325-5.215l-.151.076c.15 2.456.15 3.023.15 5.744v5.517h-6.31V1.893zM219.895 32.464h-7.142l-1.7-8.011c-.907-4.12-1.058-4.989-1.663-8.767h-.189c-.567 3.778-.718 4.799-1.587 8.767l-1.7 8.011h-7.03l-7.255-24.11h6.764l1.965 7.823c.983 3.854 1.172 4.837 1.89 8.465h.189c.567-3.628.756-4.61 1.625-8.465l1.738-7.823h7.369l1.7 7.823c.832 3.817.983 4.8 1.588 8.465l.189.037c.68-3.665.906-4.61 1.889-8.502l2.003-7.823h6.537l-7.18 24.11zM235.691 22.412c-.567 0-.68 0-1.133-.151.189 4.194 2.23 6.273 6.084 6.273 3.363 0 5.895-1.436 7.293-4.232v5.139c-2.343 2.645-4.913 3.741-8.54 3.741-6.916 0-10.997-4.761-10.997-12.848 0-7.974 3.968-12.698 10.656-12.698 6.5 0 10.128 4.233 10.128 11.753 0 1.21-.038 1.776-.227 3.023h-13.264zm6.953-4.572c.907 0 1.134 0 2.003.15-.529-3.476-2.116-5.063-5.139-5.063-2.948 0-4.837 1.927-4.988 5.064.529-.151.642-.151 1.209-.151h6.915zM253.528 8.354h6.008v2.192c0 .567-.038 1.02-.34 3.175l.227.037c1.058-4.08 3.099-6.122 6.122-6.122 1.587 0 2.645.378 3.854 1.436l-.302 6.916h-.189c-1.171-1.21-2.116-1.663-3.552-1.663-1.587 0-3.099.756-3.893 2.003-1.247 1.852-1.662 4.157-1.662 9.75v.831c0 1.776.038 2.759.038 3.439v2.078h-6.311V8.354zM271.931 1.893h6.349v11.676c0 2.948 0 3.553-.151 6.236l.15.037c1.323-2.305 1.739-2.91 3.288-5.29l4.12-6.198h7.897l-9.182 11.98L294 32.464h-8.276l-4.119-6.122c-1.7-2.456-2.003-2.947-3.325-5.215l-.151.076c.15 2.456.15 3.023.15 5.744v5.517h-6.31V1.893z"/><path d="M93 49.696c-2.344-2.797-4.876-4.157-7.71-4.157-3.514 0-6.197 2.456-6.197 5.63 0 2.873 1.511 4.044 6.688 5.253 5.707 1.323 7.974 3.628 7.974 8.05 0 5.139-3.703 8.729-9.032 8.729-2.834 0-4.723-.832-7.406-3.364v-3.552c2.38 3.137 4.648 4.46 7.67 4.46 3.704 0 6.274-2.457 6.274-5.933 0-3.1-1.776-4.762-5.97-5.631-6.274-1.323-8.768-3.552-8.768-7.898 0-4.875 3.666-8.351 8.88-8.351 2.76 0 4.951.869 7.634 3.098v3.666zM109.815 52.341h-7.595c-.454 0-.567 0-.983-.113.076 3.779.114 5.366.114 7.029 0 .529 0 1.927-.038 3.627-.038.756-.038 1.814-.038 2.154 0 4.006.945 5.555 3.439 5.555 1.738 0 2.985-.756 4.648-2.72v2.947c-1.7 1.7-2.91 2.267-4.913 2.267-3.816 0-5.895-2.607-5.82-7.255l.114-5.14V52.19c-.415.151-.529.151-1.02.151h-2.72v-1.474l.415-.037c3.098-.492 3.968-1.777 5.215-7.218h1.511l-.34 5.328c-.038.567-.075.642-.189 1.134.491-.114.605-.114 1.134-.114h7.066v2.381zM131.09 72.71h-2.418V70.63c0-.945.038-1.436.303-2.607l-.19-.076c-1.927 3.59-4.118 5.14-7.406 5.14-2.343 0-4.686-.983-5.857-2.57-1.399-1.852-1.776-3.552-1.776-8.503V49.923h2.607v12.092c0 3.628.151 4.95.605 6.046.718 1.625 2.456 2.532 4.685 2.532 2.721 0 4.686-1.096 5.707-3.287 1.02-2.079 1.133-2.986 1.133-8.352v-9.031h2.608v22.786zM150.25 52.341h-7.596c-.453 0-.567 0-.982-.113.075 3.779.113 5.366.113 7.029 0 .529 0 1.927-.038 3.627-.037.756-.037 1.814-.037 2.154 0 4.006.944 5.555 3.438 5.555 1.739 0 2.986-.756 4.648-2.72v2.947c-1.7 1.7-2.91 2.267-4.912 2.267-3.817 0-5.895-2.607-5.82-7.255l.114-5.14V52.19c-.416.151-.53.151-1.02.151h-2.721v-1.474l.415-.037c3.099-.492 3.968-1.777 5.215-7.218h1.474l-.34 5.328c-.038.567-.076.642-.19 1.134.492-.114.605-.114 1.135-.114h7.066v2.381zM166.008 52.341h-7.596c-.453 0-.566 0-.982-.113.075 3.779.113 5.366.113 7.029 0 .529 0 1.927-.038 3.627-.037.756-.037 1.814-.037 2.154 0 4.006.944 5.555 3.438 5.555 1.739 0 2.986-.756 4.648-2.72v2.947c-1.7 1.7-2.91 2.267-4.912 2.267-3.817 0-5.895-2.607-5.82-7.255l.114-5.14V52.19c-.416.151-.53.151-1.02.151h-2.721v-1.474l.415-.037c3.099-.492 3.968-1.777 5.215-7.218h1.474l-.34 5.328c-.038.567-.076.642-.19 1.134.492-.114.606-.114 1.135-.114h7.066v2.381zM186.943 67.381c0 4.535-.227 5.593-1.587 7.331-1.587 2.116-4.384 3.288-7.822 3.288-3.137 0-5.404-.794-7.71-2.683v-3.023c2.192 2.267 4.46 3.174 7.823 3.174 2.343 0 4.232-.642 5.328-1.814 1.058-1.171 1.323-2.267 1.323-5.782v-.755c0-.151.038-.378.113-.643.038-.15.114-.378.151-.642l-.15-.038c-1.777 3.477-3.666 4.761-7.105 4.761-5.555 0-9.07-4.043-9.07-10.392 0-6.575 3.44-10.618 9.183-10.618 3.288 0 5.669 1.398 7.142 4.232l.19-.038c-.265-.944-.303-1.36-.303-2.154v-1.7h2.456V67.38zm-16.211-6.99c0 4.912 2.57 7.822 6.915 7.822 4.12 0 6.727-3.137 6.727-8.163 0-5.14-2.343-7.709-6.954-7.709-4.194 0-6.688 2.948-6.688 8.05zM205.271 72.71v-1.814c0-.832.076-1.247.302-2.306l-.189-.037c-1.549 2.834-4.156 4.534-7.104 4.534-3.628 0-6.349-2.683-6.349-6.197 0-3.288 2.154-5.328 6.651-6.349 5.215-1.133 6.5-2.002 6.5-4.308 0-2.343-1.814-3.779-4.686-3.779s-5.706 1.625-7.709 4.384v-3.439c2.645-2.758 4.913-3.817 7.974-3.817 2.607 0 5.026 1.134 6.046 2.872.907 1.55 1.058 2.495 1.058 6.614v13.68h-2.494zm.189-13.076c-1.134 1.436-2.079 1.89-5.97 2.872-3.364.794-4.838 2.154-4.838 4.346 0 2.23 1.663 3.703 4.12 3.703 2.871 0 5.327-1.738 6.197-4.383.453-1.36.604-2.872.604-6.462l-.113-.076zM212.64 49.923h2.607v1.927c0 .793-.075 1.322-.302 2.456l.189.076c1.738-3.552 3.325-4.837 6.16-4.837 1.398 0 2.343.378 3.325 1.285v2.834c-1.21-1.096-2.154-1.474-3.666-1.474-1.738 0-3.363.87-4.194 2.305-1.134 1.927-1.512 3.741-1.436 8.465l-.038 6.5v3.476h-2.607V49.923zM241.473 52.341h-7.596c-.453 0-.566 0-.982-.113.075 3.779.113 5.366.113 7.029 0 .529 0 1.927-.038 3.627-.037.756-.037 1.814-.037 2.154 0 4.006.944 5.555 3.438 5.555 1.739 0 2.986-.756 4.649-2.72v2.947c-1.701 1.7-2.91 2.267-4.913 2.267-3.817 0-5.895-2.607-5.82-7.255l.114-5.14V52.19c-.416.151-.53.151-1.02.151h-2.721v-1.474l.415-.037c3.099-.492 3.968-1.777 5.215-7.218h1.474l-.34 5.328c-.038.567-.076.642-.189 1.134.491-.114.605-.114 1.134-.114h7.066v2.381z"/><path d="M61.937 35.525c-.756 0-1.55-.302-2.117-.87L47.2 22.036l-12.66 12.62c-.831.832-2.116 1.097-3.25.643-1.095-.453-1.813-1.55-1.813-2.758V10.244l-9.674 9.674a2.943 2.943 0 0 1-4.195 0l-9.674-9.674V32.54H0V3.064C0 1.854.718.797 1.814.305c1.096-.453 2.38-.189 3.25.643l12.621 12.621L30.307.948c.831-.832 2.116-1.096 3.25-.643 1.096.454 1.814 1.55 1.814 2.759V25.36l9.674-9.674a2.972 2.972 0 0 1 2.116-.87c.793 0 1.55.303 2.116.87l9.674 9.674V3.064h5.933V32.54c0 1.209-.718 2.267-1.814 2.758a3.033 3.033 0 0 1-1.133.227z"/></svg>
